<?xml version="1.0" encoding="UTF-8"?>
<svg version="1.1" xmlns="http://www.w3.org/2000/svg" width="1546" height="1198">
<path d="M0 0 C0.86727211 -0.00367669 1.73454422 -0.00735338 2.6280973 -0.01114148 C5.55144819 -0.02220675 8.47476359 -0.02602696 11.39813232 -0.02983093 C13.48718886 -0.03609343 15.57624428 -0.04274003 17.66529846 -0.04974365 C23.35341414 -0.06717309 29.0415214 -0.07771067 34.72965717 -0.08594918 C38.28125722 -0.09109512 41.83285463 -0.09717103 45.38445282 -0.10346031 C56.49032446 -0.12251763 67.59618943 -0.13674773 78.70207429 -0.14507228 C91.53354713 -0.1548483 104.36484764 -0.1811752 117.19625974 -0.22157317 C127.10629209 -0.25170579 137.01627497 -0.26653844 146.92635226 -0.26985329 C152.84883939 -0.272207 158.77114253 -0.28120922 164.69358063 -0.30631447 C170.26514212 -0.32955022 175.83639788 -0.33384645 181.40799522 -0.32355309 C183.45343478 -0.32305652 185.49888916 -0.32941226 187.54428291 -0.34310913 C190.3362868 -0.36076007 193.12718542 -0.35375535 195.91918945 -0.34057617 C196.72912015 -0.35154542 197.53905085 -0.36251466 198.3735249 -0.37381631 C203.61483688 -0.31406268 206.52882711 0.72642508 210.71356201 4.14717102 C215.17736427 8.8589623 216.97644901 13.50388618 216.8901062 19.99983215 C216.51111107 24.60961839 215.30982605 29.07956392 214.24090576 33.56904602 C213.97021774 34.73396072 213.69952972 35.89887543 213.42063904 37.09909058 C212.8222246 39.66935447 212.22101453 42.23877354 211.61499023 44.80723572 C210.6337705 48.96594903 209.66296547 53.12705183 208.69354248 57.28852844 C207.42137078 62.7460225 206.14616374 68.20279462 204.86803436 73.65889645 C201.77101721 86.88124026 198.70022867 100.10963666 195.63153076 113.33857727 C195.10677815 115.60034976 194.58201314 117.86211938 194.05723572 120.12388611 C193.79720292 121.2446158 193.53717012 122.3653455 193.26925755 123.5200367 C193.00925937 124.64061407 192.74926119 125.76119144 192.48138428 126.91572571 C192.22163032 128.03530104 191.96187635 129.15487637 191.69425106 130.30837822 C189.13789965 141.32597101 186.5793315 152.34304781 184.01844215 163.35958672 C183.55282995 165.36277824 183.08734227 167.36599871 182.62198448 169.36924934 C181.98177006 172.12513193 181.34113382 174.88091612 180.70037842 177.63667297 C180.51244185 178.44603176 180.32450529 179.25539055 180.13087368 180.08927536 C179.34936887 183.44840589 178.55649983 186.80294655 177.71356201 190.14717102 C179.33753906 189.45494446 179.33753906 189.45494446 180.99432373 188.74873352 C208.0071304 177.25424461 235.16829153 166.30198453 262.71356201 156.14717102 C263.56931824 155.83155212 264.42507446 155.51593323 265.3067627 155.19075012 C466.42923531 81.14717102 466.42923531 81.14717102 535.71356201 81.14717102 C535.95465698 79.9003656 535.95465698 79.9003656 536.20062256 78.62837219 C538.25909064 68.14832095 540.51077274 57.71667621 542.88275146 47.30317688 C543.31252195 45.40354239 543.73600297 43.50247429 544.15325928 41.60005188 C550.66656103 11.93513125 550.66656103 11.93513125 562.71356201 4.14717102 C569.78702211 -0.24221366 575.61083719 -0.41216995 583.82403564 -0.33384705 C585.79439388 -0.33897359 585.79439388 -0.33897359 587.80455732 -0.34420371 C591.43516464 -0.3531164 595.06529687 -0.33719172 598.6958437 -0.31709146 C602.61666617 -0.29977702 606.53746303 -0.30566598 610.45831299 -0.30870056 C617.24630554 -0.31079541 624.03414399 -0.29827225 630.82209778 -0.27574921 C640.63624729 -0.24320621 650.45032249 -0.23281984 660.26452011 -0.22779724 C676.1883315 -0.2190482 692.1120608 -0.19244321 708.03582764 -0.15458679 C723.5019693 -0.1178566 738.96808865 -0.08954977 754.43426514 -0.07255554 C755.86487033 -0.0709792 755.86487033 -0.0709792 757.32437664 -0.06937101 C762.10911423 -0.06415077 766.89385197 -0.05909596 771.67858982 -0.0541234 C811.3569719 -0.01267353 851.03526022 0.05806215 890.71356201 0.14717102 C890.71356201 3.44717102 890.71356201 6.74717102 890.71356201 10.14717102 C889.2014917 10.57127258 887.68942139 10.99537415 886.13153076 11.43232727 C854.04892855 20.53621153 820.11911776 31.96827345 798.71356201 59.14717102 C799.83577148 59.12650574 799.83577148 59.12650574 800.98065186 59.10542297 C812.46308203 58.993082 823.88135191 59.63419186 835.33856201 60.33467102 C836.40514038 60.39963776 837.47171875 60.46460449 838.57061768 60.53153992 C929.34485 66.16975901 1020.46754028 84.15086159 1150.71356201 159.14717102 C1151.69582764 159.91545227 1152.67809326 160.68373352 1153.69012451 161.47529602 C1161.02050973 167.3480542 1167.90659376 173.68256508 1174.71356201 180.14717102 C1175.9549292 181.32472961 1175.9549292 181.32472961 1177.22137451 182.52607727 C1182.87145545 188.02850801 1187.83291223 193.95949978 1192.71356201 200.14717102 C1193.49473389 201.11138977 1194.27590576 202.07560852 1195.08074951 203.06904602 C1218.52773461 232.58378126 1233.17883487 267.1122763 1239.71356201 304.14717102 C1239.89241943 305.15852112 1240.07127686 306.16987122 1240.2555542 307.21186829 C1240.86818343 312.47571188 1240.91590568 317.68752152 1240.95184326 322.98310852 C1240.95991501 324.13469452 1240.96798676 325.28628052 1240.9763031 326.47276306 C1240.99011073 328.91532404 1241.00084768 331.35790404 1241.00872803 333.80049133 C1241.0201342 336.24944387 1241.04040015 338.69837386 1241.07025146 341.14717102 C1242.19818926 433.90272566 1189.47824347 518.23058483 1131.11688232 586.50117493 C1129.61978643 588.25716319 1128.13126135 590.02019925 1126.64324951 591.78388977 C1121.82633801 597.47441249 1117.0092086 603.04371671 1111.63594055 608.22384644 C1109.80414134 610.05654712 1108.11478523 611.94710596 1106.43206787 613.91645813 C1102.94815508 617.92633807 1099.29114542 621.71474242 1095.52996826 625.46357727 C1094.87076889 626.12373337 1094.21156952 626.78388947 1093.53239441 627.46405029 C1092.14959366 628.84752608 1090.76555126 630.22976185 1089.38031006 631.61079407 C1087.28125858 633.70448771 1085.18760261 635.80346976 1083.09442139 637.9030304 C1081.73992415 639.25686673 1080.3851167 640.61039277 1079.02996826 641.96357727 C1078.41513077 642.580439 1077.80029327 643.19730072 1077.16682434 643.83285522 C1073.41759507 647.56230331 1069.55252146 651.10542588 1065.54394531 654.55490112 C1062.58583283 657.12819462 1059.75255217 659.83211705 1056.90106201 662.52217102 C1051.85924559 667.24464534 1046.68991634 671.71369252 1041.29559326 676.03388977 C1038.66934433 678.18336128 1036.15722748 680.4217719 1033.65106201 682.70967102 C1029.71839069 686.28482677 1025.68120736 689.65608368 1021.50653076 692.94404602 C1019.47618866 694.54560259 1017.45951332 696.15834886 1015.45184326 697.78779602 C1005.85294096 705.56205883 996.01349783 712.98801036 986.10467529 720.36152649 C983.92385352 721.99012874 981.75196481 723.62955751 979.58465576 725.27607727 C969.15886992 733.1880845 958.49584692 740.72969585 947.71356201 748.14717102 C946.75997803 748.80733215 945.80639404 749.46749329 944.82391357 750.1476593 C941.94093479 752.13860604 939.04780321 754.11381627 936.15106201 756.08467102 C935.25234375 756.70648254 934.35362549 757.32829407 933.42767334 757.96894836 C932.17506714 758.81320374 932.17506714 758.81320374 930.89715576 759.67451477 C930.16037598 760.17716858 929.42359619 760.67982239 928.66448975 761.19770813 C926.71356201 762.14717102 926.71356201 762.14717102 923.71356201 761.14717102 C928.38418063 756.81859265 933.15220366 752.74473738 938.27606201 748.95967102 C948.91394448 741.09629989 959.07132167 732.60886934 969.13348389 724.02607727 C972.42924347 721.21751693 975.77284509 718.48065397 979.15106201 715.77217102 C984.83353501 711.15308478 990.1440918 706.17258055 995.47918701 701.16279602 C997.98985079 698.80886732 1000.54194072 696.51722888 1003.15106201 694.27217102 C1006.20152332 691.64268633 1009.02974699 688.8544997 1011.84832764 685.97993469 C1013.60913962 684.24977559 1015.42305281 682.64775281 1017.30340576 681.04951477 C1022.35125532 676.65891915 1027.05789869 671.94916741 1031.77606201 667.20967102 C1032.63522217 666.35437805 1033.49438232 665.49908508 1034.37957764 664.61787415 C1038.76542282 660.2253279 1043.00017652 655.76995491 1047.04437256 651.06147766 C1049.95563036 647.72270738 1053.03551565 644.54321858 1056.08856201 641.33467102 C1061.1325137 635.99354384 1065.97788897 630.58067467 1070.55731201 624.83076477 C1072.52147196 622.38623962 1074.54089157 619.99968415 1076.58709717 617.62373352 C1136.1181972 548.35732412 1185.86125424 456.56332838 1180.25067139 360.16914368 C1175.25920216 299.95683342 1145.79669702 244.21225447 1099.71356201 205.14717102 C1095.1307006 201.37099388 1090.44002482 197.74105439 1085.71356201 194.14717102 C1085.12591064 193.69728821 1084.53825928 193.2474054 1083.93280029 192.78388977 C1033.54644492 154.36792643 972.86201489 131.70815235 911.71356201 117.14717102 C910.43432861 116.84182434 909.15509521 116.53647766 907.83709717 116.22187805 C864.99153552 106.13645176 821.48219485 101.23168833 777.71356201 97.14717102 C777.36071892 98.96631264 777.36071892 98.96631264 777.00074768 100.82220459 C774.62242076 112.96640743 771.95638352 125.01756172 769.10028076 137.05732727 C768.6527481 138.95558573 768.20555406 140.85392405 767.75866699 142.75233459 C766.80568489 146.79839641 765.85082014 150.8440071 764.8944397 154.88926697 C762.58652817 164.65291197 760.29085922 174.41943988 757.99380684 184.18564415 C757.19286085 187.59062579 756.391577 190.9955278 755.59025574 194.40042114 C750.2478535 217.10524498 744.93579289 239.81709359 739.64755249 262.53459167 C738.66153798 266.76981586 737.67369896 271.00460743 736.68411255 275.23899841 C730.16914675 303.09078787 730.16914675 303.09078787 724.06121826 331.03388977 C723.81488144 332.18565201 723.56854462 333.33741425 723.31474304 334.52407837 C721.66215621 342.55070341 720.40199179 348.95092343 724.52606201 356.35420227 C727.83266858 361.34674311 731.59905054 362.57569866 737.16351473 363.74188626 C741.51099227 364.43284066 745.81490812 364.42409322 750.20848083 364.40545654 C751.2287418 364.40913225 752.24900277 364.41280795 753.30018073 364.41659504 C756.69933805 364.42652969 760.09833033 364.42243331 763.49749756 364.41841125 C765.9422625 364.42280076 768.38702595 364.42810373 770.83178711 364.43424988 C776.08637218 364.44573093 781.34092967 364.45140086 786.59552574 364.45213127 C794.1992074 364.45346046 801.80281594 364.46860225 809.40647171 364.48762644 C821.75337362 364.51842293 834.10027738 364.54261098 846.44720459 364.5605011 C847.55420414 364.56211012 847.55420414 364.56211012 848.68356732 364.56375165 C856.92212022 364.57557855 865.16067386 364.58578473 873.39923096 364.5941925 C876.38983156 364.59726675 879.38043215 364.60035548 882.37103271 364.60346985 C883.10903768 364.60423519 883.84704265 364.60500053 884.60741141 364.60578906 C896.91359123 364.61887095 909.21971782 364.64350695 921.52585822 364.67721325 C929.11093747 364.69749236 936.69590286 364.70779416 944.28100941 364.70522404 C950.08925658 364.70406658 955.89738715 364.71821513 961.70559692 364.73803329 C964.08804999 364.74364146 966.47052146 364.74411011 968.85297585 364.73909569 C972.1020532 364.73297335 975.35056596 364.74515191 978.59959412 364.76190186 C979.54482412 364.75569004 980.49005412 364.74947822 981.46392745 364.74307817 C987.51420032 364.80001849 991.95769026 365.6050671 996.57684326 369.86592102 C997.29420654 370.74763977 997.29420654 370.74763977 998.02606201 371.64717102 C998.51719482 372.23498352 999.00832764 372.82279602 999.51434326 373.42842102 C1003.48103547 379.11358249 1002.37941603 387.18538581 1001.28721237 393.68392181 C999.79703505 401.19066807 997.97058249 408.62218315 996.17840576 416.06123352 C995.59020562 418.54999474 995.00334401 421.03907264 994.41772461 423.52844238 C993.16545001 428.83977347 991.90469289 434.14897056 990.63601685 439.45640564 C988.62592013 447.86634797 986.6366358 456.28114349 984.65032959 464.69673157 C983.97735941 467.54690826 983.30422296 470.39704565 982.6309967 473.24716187 C982.46412163 473.95366487 982.29724655 474.66016787 982.12531465 475.38808006 C980.93940641 480.40754293 979.75061523 485.42631772 978.56040955 490.44476318 C973.06398515 513.62231611 967.64851997 536.81810354 962.2755127 560.02458191 C960.21492074 568.92428571 958.14914032 577.82278538 956.08335495 586.72128487 C955.62425701 588.69893703 955.16521391 590.67660193 954.70622635 592.65427971 C950.84655833 609.28451862 946.97375147 625.91167782 943.09637451 642.53779602 C942.53973684 644.92493643 941.98310129 647.31207734 941.4264679 649.69921875 C939.01357668 660.04636468 936.60008243 670.39336896 934.18450928 680.73988914 C933.20176767 684.95003609 932.21977839 689.16035828 931.237957 693.37071991 C930.78612768 695.30751254 930.33396655 697.24422781 929.88142776 699.1808548 C929.25534403 701.8602605 928.63030924 704.53990809 928.00579834 707.21968079 C927.71285889 708.47448777 927.71285889 708.47448777 927.41400146 709.75464439 C926.44829823 713.91010597 925.50663016 718.0691761 924.60452271 722.23893738 C924.42685962 723.05679435 924.24919653 723.87465132 924.06614971 724.71729183 C923.73538894 726.24819771 923.40877844 727.78000926 923.08733082 729.31289768 C920.93499443 739.28069451 916.81004552 746.82179328 908.71356201 753.14717102 C900.98354238 757.88416476 894.51348925 759.29781235 885.49742126 759.28761292 C884.2621635 759.2920696 884.2621635 759.2920696 883.00195104 759.29661632 C880.24459684 759.30528269 877.48728617 759.30680981 874.72991943 759.30830383 C872.75203865 759.31293342 870.77415876 759.31795827 868.79627991 759.323349 C863.42430967 759.33646038 858.05235192 759.34291536 852.68036819 759.34735966 C849.32354995 759.35029207 845.96673512 759.35439718 842.60991859 759.35886383 C832.10526298 759.37253468 821.60061515 759.38220368 811.09595126 759.38606572 C798.9731736 759.39054731 786.85050865 759.40810166 774.72776526 759.43706632 C765.35436624 759.45868417 755.98099893 759.46877004 746.60757524 759.47010684 C741.01039026 759.47115468 735.41331129 759.4770582 729.81615257 759.49492645 C724.55072807 759.51140912 719.28548925 759.51356162 714.02004814 759.50478745 C712.08994296 759.50401721 710.15982778 759.50835795 708.22974777 759.5182457 C705.58982945 759.53097451 702.95056789 759.52508342 700.31065369 759.5146637 C699.55139546 759.5227201 698.79213724 759.53077651 698.00987118 759.53907704 C690.66754051 759.47154678 684.03351507 757.46712408 678.71356201 752.14717102 C674.63812426 746.03401439 674.05242419 738.5872049 675.40846252 731.4715271 C675.78161254 729.84020013 676.17168366 728.21267709 676.57611084 726.58882141 C676.78684172 725.68735571 676.99757259 724.78589001 677.21468925 723.85710716 C677.91453072 720.87850664 678.6363822 717.90569741 679.35809326 714.93232727 C679.86356546 712.79802197 680.36741977 710.66333295 680.86976624 708.52828979 C681.93231008 704.02079439 683.00304991 699.51535996 684.07983398 695.01124573 C685.66949649 688.35019654 687.22533261 681.6816404 688.76971436 675.00996399 C689.02154826 673.92227785 689.27338217 672.83459171 689.5328474 671.71394539 C690.04579899 669.49811719 690.55868821 667.28227454 691.07151604 665.06641769 C692.39708622 659.3461004 693.73004141 653.62750611 695.06292725 647.90888977 C695.33366216 646.7471266 695.60439707 645.58536343 695.88333607 644.38839531 C696.43897866 642.00407747 696.99464521 639.61976522 697.55033493 637.23545837 C699.01174604 630.96399796 700.47207712 624.69228605 701.93255615 618.42060852 C708.2806679 591.16209817 714.63386116 563.90477158 720.989151 536.64793396 C723.54624499 525.68042396 726.10187112 514.71257599 728.65374756 503.74385071 C729.37556973 500.64162162 730.09741947 497.53939896 730.8192997 494.43718338 C731.28462777 492.43746434 731.74991837 490.43773658 732.21516991 488.43799973 C734.92426329 476.79580992 737.64951801 465.15768423 740.40283394 453.52587509 C741.42079291 449.21959598 742.43136718 444.91157733 743.44259644 440.60371399 C744.1772493 437.48864393 744.92342277 434.3765034 745.67034912 431.26435852 C746.09169322 429.46894735 746.51240141 427.67338675 746.93231201 425.87763977 C747.11846573 425.11940414 747.30461945 424.36116852 747.49641418 423.57995605 C749.28906462 415.78524639 750.06665573 407.99967595 745.98699951 400.83857727 C743.08093705 396.97868449 739.34987556 395.05832134 734.71356201 394.14717102 C733.24710216 394.05932102 731.77722837 394.02062619 730.3081398 394.01967907 C729.42729351 394.01667142 728.54644722 394.01366377 727.63890862 394.01056498 C726.67549798 394.01231535 725.71208733 394.01406573 724.71948242 394.01586914 C723.69265405 394.01375343 722.66582569 394.01163771 721.60788131 394.00945789 C718.15644393 394.00345157 714.70504305 394.00445849 711.25360107 394.00532532 C708.78326353 394.00229424 706.31292654 393.99877293 703.84259033 393.99479675 C698.51698958 393.98690343 693.19139615 393.98174075 687.86579132 393.97850609 C679.44521573 393.97300605 671.02468058 393.95610487 662.60412598 393.93716431 C659.72240073 393.93080763 656.84067538 393.92449918 653.95895004 393.91818714 C653.23877149 393.91660338 652.51859293 393.91501962 651.77659078 393.91338786 C643.57947732 393.89545288 635.38236101 393.87922591 627.1852417 393.86421204 C626.43596727 393.86283616 625.68669283 393.86146029 624.91471311 393.86004273 C612.77623721 393.83811898 600.63777173 393.82735785 588.49927953 393.81984129 C576.0327707 393.81176587 563.56635117 393.78846181 551.09989333 393.75188762 C543.41302052 393.72988067 535.7263314 393.7201924 528.03942868 393.72638796 C522.14568219 393.72994233 516.25211214 393.71267703 510.3584137 393.68770981 C507.94294459 393.68078775 505.52744483 393.68068231 503.11197662 393.68791008 C499.8128224 393.69678473 496.51465063 393.68112566 493.21557617 393.65942383 C492.26108841 393.66786637 491.30660065 393.6763089 490.32318902 393.68500727 C483.68202112 393.60430314 478.09421178 392.3595207 473.15326715 387.66455287 C468.00775782 381.76180347 468.08652499 375.93595175 468.49573898 368.39966965 C469.29451912 360.13951835 471.63837595 352.02276264 473.59246826 343.97920227 C474.11397822 341.781393 474.634031 339.58323753 475.15274048 337.38476562 C476.2635979 332.68929208 477.38397443 327.99623656 478.51211548 323.30488586 C480.29722724 315.88094735 482.06117479 308.45208474 483.82122803 301.02217102 C485.63840144 293.35481138 487.45665121 285.68772046 489.28208923 278.02232361 C495.09372609 253.61331998 500.7780516 229.1754986 506.43702316 204.73072433 C508.24645485 196.91675303 510.05939982 189.10359586 511.87250328 181.29047585 C512.30191068 179.44002567 512.7312547 177.58956079 513.160532 175.73908043 C518.31212931 153.53412472 523.51096919 131.34022483 528.71356201 109.14717102 C511.29777062 111.32400208 511.29777062 111.32400208 493.96356201 114.05732727 C492.99216278 114.22545929 492.02076355 114.39359131 491.01992798 114.56681824 C487.91651741 115.10739285 484.81487168 115.65717811 481.71356201 116.20967102 C480.6256134 116.4024765 479.53766479 116.59528198 478.41674805 116.79393005 C440.8640999 123.47384747 403.6637203 131.70051455 366.71356201 141.14717102 C365.82771423 141.37320007 364.94186646 141.59922913 364.0291748 141.83210754 C335.21566394 149.19756005 306.70868526 157.41817855 278.33483887 166.32484436 C275.84358921 167.1063799 273.35122884 167.88426695 270.85858154 168.66133118 C251.68386559 174.65217186 232.72982472 181.19068446 213.83856201 188.02217102 C212.83987091 188.38315887 211.84117981 188.74414673 210.81222534 189.11607361 C200.29475362 192.92634521 189.83333726 196.80848688 179.50994873 201.12031555 C176.71356201 202.14717102 176.71356201 202.14717102 173.71356201 202.14717102 C173.64955987 203.02906208 173.64955987 203.02906208 173.58426476 203.92876911 C173.01154245 210.68425672 171.73821006 217.10468226 170.16912842 223.69282532 C169.91045486 224.80160538 169.65178131 225.91038544 169.38526917 227.05276489 C168.53439856 230.69370326 167.67472164 234.33250278 166.81512451 237.97138977 C166.21777264 240.52176617 165.62105236 243.07229058 165.02493286 245.62295532 C163.6167665 251.64432344 162.20258624 257.66426034 160.78583848 263.68361455 C158.10511932 275.0739241 155.43558814 286.46685435 152.7681694 297.86028481 C151.89607728 301.58017977 151.02047967 305.29923592 150.14437866 309.01818848 C142.75447207 332.57164719 142.75447207 332.57164719 145.33856201 355.95967102 C148.51086743 360.21723882 151.61034026 362.26863893 156.80797672 363.74010658 C161.1270981 364.3452035 165.40924897 364.2900795 169.76542664 364.28520203 C170.78635346 364.28802331 171.80728027 364.29084459 172.85914427 364.29375136 C176.28450147 364.30209298 179.70982634 364.30343523 183.13519287 364.30488586 C185.58921907 364.3095543 188.0432444 364.31469792 190.49726868 364.32028198 C195.78411256 364.33156129 201.07095017 364.3400465 206.35780144 364.34640121 C214.71489941 364.35673667 223.07195776 364.37730197 231.42903137 364.39952087 C234.28925597 364.40700012 237.14948073 364.41441389 240.00970554 364.42180824 C240.7244593 364.42365881 241.43921306 364.42550938 242.17562602 364.42741602 C250.30797779 364.44833437 258.44033392 364.46716759 266.57269287 364.48506165 C267.68757136 364.48751892 267.68757136 364.48751892 268.82497264 364.49002583 C280.87420015 364.51632074 292.92343071 364.53495994 304.97267478 364.55165355 C317.34653389 364.56907373 329.72033286 364.59791636 342.09414393 364.63654292 C349.72501354 364.6599377 357.35578512 364.67393701 364.98669089 364.67587055 C370.83318721 364.67822905 376.67957082 364.69609468 382.52602196 364.71973991 C384.92459376 364.72694728 387.32318719 364.72902696 389.72176743 364.72563744 C392.99296241 364.72175273 396.26358339 364.7361655 399.53471375 364.75517273 C400.48656317 364.74964303 401.4384126 364.74411334 402.41910595 364.73841608 C408.48720893 364.79939182 412.97937494 365.57348131 417.57684326 369.90107727 C418.29420654 370.79633118 418.29420654 370.79633118 419.02606201 371.70967102 C419.51719482 372.30908508 420.00832764 372.90849915 420.51434326 373.52607727 C424.56744111 379.00502062 423.33964365 387.76478829 422.40990448 394.27268219 C421.41474018 399.73828889 420.0651988 405.12218 418.73699951 410.51435852 C418.30267785 412.33322674 417.86996542 414.15247983 417.43870544 415.97207642 C416.50228829 419.90968469 415.55567966 423.84464719 414.6010437 427.77787781 C413.04868495 434.17588197 411.52044856 440.5795015 409.996521 446.98432922 C409.46003762 449.23819705 408.92352291 451.49205743 408.38697815 453.74591064 C408.11603647 454.8841371 407.8450948 456.02236355 407.56594276 457.19508171 C406.72199088 460.736731 405.87579434 464.2778375 405.02903748 467.81881714 C400.74008947 485.76405964 396.52538788 503.7259635 392.35028076 521.69795227 C392.19555502 522.36393535 392.04082929 523.02991843 391.88141489 523.71608281 C390.14611857 531.18603344 388.4127035 538.65641987 386.68011475 546.1269989 C384.77642523 554.33522713 382.86942515 562.54268431 380.96160889 570.74995422 C380.80444279 571.42609012 380.64727669 572.10222603 380.48534799 572.79885089 C379.85151008 575.52564606 379.21766401 578.25243934 378.58379281 580.97922677 C377.48163596 585.72053592 376.37973157 590.46190369 375.27798462 595.20330811 C369.67496744 619.31601861 364.06973655 643.42821327 358.45629215 667.53849888 C356.90570584 674.19846735 355.35621418 680.85868899 353.80766201 687.51913071 C352.86003945 691.59365214 351.91130307 695.6679136 350.96224022 699.74209976 C350.53048455 701.5964944 350.09915927 703.45098931 349.66832924 705.30559921 C348.53771775 710.17193575 347.39957181 715.03634335 346.24608612 719.89731216 C345.8880705 721.40989085 345.53260693 722.92307563 345.17957306 724.4368248 C344.66835805 726.62340375 344.14668213 728.80723462 343.62225342 730.99067688 C343.32863922 732.22885666 343.03502502 733.46703644 342.73251343 734.74273682 C339.7472344 744.71689835 333.72028678 751.18044016 324.71356201 756.14717102 C319.30216958 758.64406753 313.97775335 759.27200491 308.05859661 759.27301216 C306.94999741 759.27561991 305.84139821 759.27822766 304.6992051 759.28091443 C303.49171556 759.2786837 302.28422601 759.27645298 301.04014587 759.27415466 C299.7494059 759.27571465 298.45866592 759.27727464 297.12881261 759.27888191 C293.55279472 759.28305342 289.97680355 759.28099439 286.40078557 759.27789569 C282.5419383 759.27563307 278.68309562 759.27912543 274.82424927 759.28187561 C267.268804 759.28632241 259.71336866 759.28536186 252.15792301 759.28246297 C246.02058281 759.2802055 239.88324541 759.27989791 233.74590492 759.28098679 C232.87276779 759.28114002 231.99963067 759.28129325 231.10003484 759.28145113 C229.32639477 759.28177085 227.55275471 759.28209506 225.77911464 759.28242372 C209.14931975 759.2852751 192.51953038 759.2819964 175.88973639 759.27662335 C161.60713189 759.2721517 147.32453551 759.27293488 133.04193115 759.27754211 C116.4642892 759.28288715 99.88665207 759.28500458 83.30900937 759.28192985 C81.54338634 759.28161129 79.77776331 759.28129692 78.01214027 759.28098679 C77.14335618 759.28083251 76.27457208 759.28067823 75.3794612 759.28051928 C69.24384502 759.27965421 63.1082319 759.28111672 56.9726162 759.28346634 C49.50390688 759.28626357 42.03520808 759.28552754 34.56649997 759.2801856 C30.75275167 759.27754814 26.93902094 759.2765443 23.12527275 759.27983475 C19.00085302 759.2833396 14.87647809 759.27916975 10.75205994 759.27415466 C9.53341678 759.27638538 8.31477363 759.27861611 7.0592019 759.28091443 C5.96364143 759.27830668 4.86808097 759.27569893 3.73932171 759.27301216 C2.78605863 759.27284981 1.83279556 759.27268746 0.85064572 759.27252018 C-1.28643799 759.14717102 -1.28643799 759.14717102 -2.28643799 758.14717102 C-2.3584931 756.46108136 -2.37029866 754.77216443 -2.34893799 753.08467102 C-2.33991455 752.16556946 -2.33089111 751.2464679 -2.32159424 750.29951477 C-2.30999268 749.58924133 -2.29839111 748.8789679 -2.28643799 748.14717102 C2.41488457 746.51053313 7.17468698 745.14546097 11.96160889 743.78804016 C47.88533644 733.55336794 84.76373659 717.26711232 103.86834717 683.08076477 C104.98558929 680.95492168 106.05012538 678.81253758 107.08856201 676.64717102 C107.39801758 676.00844055 107.70747314 675.36971008 108.02630615 674.71162415 C114.11961364 661.3424537 116.66969296 646.22004429 119.98309326 631.97920227 C120.49741286 629.7800292 121.01202325 627.58092412 121.52690125 625.38188171 C122.91014091 619.46999498 124.28904463 613.55710486 125.66703796 607.64399338 C126.81886991 602.70382876 127.97325113 597.76426137 129.12766838 592.82470036 C132.9972156 576.26728978 136.85719801 559.7076565 140.71356201 543.14717102 C141.13872227 541.32142799 141.13872227 541.32142799 141.57247162 539.45880127 C146.49702712 518.31000787 151.41516441 497.15972445 156.32611084 476.00776672 C156.66726693 474.53881942 156.66726693 474.53881942 157.01531506 473.04019642 C158.10441133 468.34938302 159.19154266 463.65813243 160.27403259 458.96578979 C162.03886284 451.32086493 163.81585543 443.68107654 165.68035889 436.05976868 C165.96808167 434.86765274 166.25580444 433.6755368 166.55224609 432.44729614 C167.05772565 430.35977405 167.57323489 428.27463088 168.10290527 426.19311523 C169.91087467 418.67020133 171.78101803 409.3330852 168.08856201 402.14717102 C164.69591615 397.86172362 161.1209811 395.12227804 155.71356201 394.14717102 C153.24078238 394.03522626 150.79453726 393.97349854 148.32121277 393.95962524 C147.57418266 393.95171516 146.82715255 393.94380508 146.05748516 393.9356553 C143.55280833 393.91058186 141.04813488 393.89267844 138.543396 393.87495422 C136.74786629 393.85886566 134.95233917 393.84248581 133.15681458 393.82583618 C116.7659988 393.68121175 100.37443014 393.60608439 83.98310757 393.54691792 C71.872457 393.50235477 59.76293934 393.4252175 47.65279526 393.30533344 C39.13119055 393.22382515 30.60989571 393.18076371 22.08791786 393.16561574 C17.0014532 393.15546634 11.91641666 393.12830563 6.83038139 393.05930519 C2.04047651 392.99503712 -2.74728683 392.97856616 -7.53756142 392.99780083 C-9.28911887 392.9966522 -11.0407658 392.9785547 -12.79193497 392.94165802 C-21.71052932 392.76354238 -27.84123285 392.84007232 -34.67008972 399.00427246 C-36.234482 400.69523432 -37.77628737 402.40759627 -39.28643799 404.14717102 C-40.57782026 405.31675304 -41.88602755 406.4686128 -43.22393799 407.58467102 C-50.59753245 414.00242916 -57.82590368 420.58715157 -64.67315674 427.56513977 C-66.33812785 429.19785963 -68.07094521 430.70118452 -69.84893799 432.20967102 C-78.38475184 439.57847907 -86.43101746 447.75509151 -93.71612549 456.35810852 C-95.4910918 458.38033382 -97.36942822 460.25931729 -99.28643799 462.14717102 C-103.16654332 465.98284766 -106.74329016 470.0009342 -110.28643799 474.14717102 C-111.1488208 475.14361633 -112.01120361 476.14006165 -112.89971924 477.16670227 C-125.22283603 491.42547451 -137.19427286 505.90472456 -148.28643799 521.14717102 C-149.00863525 522.13572083 -149.00863525 522.13572083 -149.74542236 523.14424133 C-163.22146917 541.66705868 -175.20765327 561.10922682 -186.28643799 581.14717102 C-186.92742432 582.29137512 -186.92742432 582.29137512 -187.58135986 583.45869446 C-221.82956376 644.82228599 -239.43587937 719.48094747 -220.36846924 788.46846008 C-213.48618834 811.96478469 -203.50010741 834.1689775 -189.28643799 854.14717102 C-188.52718018 855.21838196 -187.76792236 856.2895929 -186.98565674 857.39326477 C-184.81143535 860.3630272 -182.57453987 863.26439894 -180.28643799 866.14717102 C-179.14755127 867.59349915 -179.14755127 867.59349915 -177.98565674 869.06904602 C-166.3364269 883.34524059 -153.05006176 897.08496859 -138.28643799 908.14717102 C-137.0799853 909.08113298 -135.8743169 910.01610856 -134.66925049 910.95185852 C-83.28563523 950.52570964 -22.38350556 972.07803099 39.71356201 988.14717102 C39.82138504 986.91929871 39.92920807 985.69142639 40.04029846 984.42634583 C40.71499445 978.39966457 42.09574468 972.57624458 43.48577881 966.68037415 C43.91045189 964.85132286 43.91045189 964.85132286 44.34370422 962.98532104 C45.11711354 959.65899723 45.89510455 956.33381033 46.67523932 953.00906181 C47.49821647 949.49690941 48.31535508 945.98339873 49.13319397 942.470047 C50.51098637 936.55481881 51.89254182 930.64048046 53.27679443 924.72676086 C55.20791462 916.47672228 57.13229225 908.22512248 59.0552572 899.97317982 C60.56892515 893.47878102 62.08444312 886.98481369 63.60028076 880.49092102 C63.75867298 879.81229822 63.9170652 879.13367542 64.08025718 878.4344883 C64.54851033 876.42856589 65.0169436 874.42268565 65.48545837 872.41682434 C65.71252721 871.444327 65.71252721 871.444327 65.94418329 870.45218325 C66.96991487 866.06257968 68.00567432 861.675404 69.04299927 857.28852844 C70.16032863 852.55175706 71.23521606 847.8081583 72.27890015 843.05464172 C72.65996398 841.36315884 72.65996398 841.36315884 73.04872608 839.63750458 C73.51844648 837.55129949 73.97520845 835.46210732 74.41516399 833.36942291 C76.81581506 822.86731018 81.76715919 814.32565799 90.71356201 808.14717102 C97.54452582 804.58832897 103.65265386 803.56686804 111.27731323 803.64164734 C112.29293394 803.63555722 113.30855465 803.6294671 114.35495174 803.62319243 C117.73270181 803.60766955 121.10973496 803.62035006 124.48748779 803.63301086 C126.91930586 803.62754675 129.35112049 803.62030341 131.78292847 803.61141968 C137.00697143 803.59610905 142.23087531 803.59276016 147.45492935 803.60018539 C155.0165863 803.61073632 162.57805711 803.59726821 170.13968931 803.57772084 C182.4216384 803.54643268 194.70354799 803.53138039 206.98553467 803.5280304 C207.71945363 803.52782641 208.4533726 803.52762242 209.20953153 803.52741225 C209.94436549 803.52720888 210.67919945 803.52700551 211.43630111 803.52679598 C221.85831724 803.52387486 232.28032118 803.51706761 242.70233154 803.50556946 C243.80276821 803.50436152 243.80276821 803.50436152 244.92543592 803.50312917 C257.16609936 803.48936498 269.40674107 803.46757106 281.64738452 803.44169962 C289.18875309 803.4262785 296.73005049 803.41903936 304.27143453 803.42249455 C310.04900041 803.42477948 315.8265216 803.41741473 321.60407639 803.4066143 C323.97118241 803.40393251 326.33829519 803.40468154 328.70539856 803.40912437 C331.93827693 803.41477245 335.17091381 803.40821092 338.40377808 803.39872742 C339.33860932 803.40339063 340.27344057 803.40805384 341.23660004 803.41285837 C351.41055281 803.3546464 360.71028139 801.04299635 368.40106201 794.08467102 C376.91242661 784.68256356 378.79659419 771.58922028 381.50262451 759.61982727 C381.95799958 757.64621344 382.41444627 755.6728466 382.87187195 753.69970703 C383.8554769 749.4469376 384.8318088 745.19258845 385.80245972 740.93684387 C387.36540008 734.08468817 388.94439986 727.23629334 390.52581787 720.38838196 C392.48799389 711.88725462 394.4464488 703.38528666 396.40036678 694.88225746 C400.06985847 678.91598485 403.77227177 662.95753254 407.49090576 647.00263977 C407.77069212 645.8019668 408.05047848 644.60129383 408.33874321 643.36423683 C410.03473773 636.0864411 411.73154234 628.80883444 413.4286232 621.53129196 C415.9651875 610.65359636 418.50062847 599.77563991 421.03387451 588.89717102 C421.31047976 587.70950323 421.587085 586.52183544 421.87207222 585.29817772 C425.80105264 568.42337045 429.6978067 551.54136839 433.57348061 534.65424347 C435.16858164 527.70859249 436.76875735 520.76410851 438.36895275 513.81962967 C439.8705809 507.29963092 441.36319795 500.77765543 442.84894562 494.25402069 C443.75921815 490.26676259 444.67787417 486.28147107 445.59886551 482.29667664 C446.02045449 480.46456669 446.43850521 478.63163823 446.85267258 476.7978363 C447.41789885 474.29709772 447.99571271 471.79958454 448.57659912 469.30244446 C448.73493508 468.58743145 448.89327105 467.87241844 449.05640507 467.13573837 C451.48270244 456.87955582 456.81916076 448.15006022 465.71356201 442.27217102 C471.89978737 438.4591097 478.21017652 437.85183514 485.28410339 437.88647461 C486.12156807 437.88264906 486.95903276 437.87882352 487.82187515 437.87488204 C490.61453018 437.86460309 493.40697764 437.86853445 496.199646 437.87251282 C498.20737904 437.86816354 500.21511043 437.86297967 502.22283936 437.85702515 C507.66702198 437.84364774 513.11113513 437.84305504 518.55533099 437.84558845 C523.10308453 437.84665892 527.65082406 437.84177289 532.1985746 437.83698303 C542.92827185 437.82589239 553.65793408 437.82544808 564.38763428 437.83149719 C575.45133192 437.83753874 586.51490245 437.82522032 597.57857841 437.80392712 C607.08365738 437.78630725 616.5886959 437.78031034 626.09379059 437.78356487 C631.76806697 437.7853771 637.44225264 437.78274737 643.11651421 437.76885033 C648.45256263 437.75627024 653.78841292 437.75821792 659.12445831 437.77126122 C661.08036173 437.77362606 663.0362791 437.77089562 664.99216652 437.76263809 C667.66701908 437.75216128 670.34120795 437.76027872 673.01603699 437.77294922 C673.78560382 437.76557493 674.55517065 437.75820065 675.34805769 437.7506029 C680.98961086 437.8066256 686.88222794 438.594613 691.24550527 442.52827758 C696.89182063 449.0714771 697.46359566 454.48309074 696.93668365 462.95713425 C696.13312265 470.84443786 693.9512479 478.57545513 692.08074951 486.26045227 C691.57915271 488.37283911 691.07903332 490.48557722 690.58026123 492.59863281 C689.50186508 497.15465653 688.41394065 501.70825724 687.31848145 506.26020813 C685.55285924 513.59832061 683.80922099 520.94154799 682.06951904 528.2858429 C680.21687302 536.10381274 678.3634863 543.92159263 676.50332642 551.73777771 C670.38612895 577.44825074 664.39485744 603.18750033 658.42331886 628.93213463 C656.3785829 637.74708949 654.32947987 646.56101744 652.27692056 655.37415385 C646.61701667 679.67707285 640.9698587 703.98249807 635.40377808 728.30711365 C633.4645719 736.78134851 631.51586683 745.25339006 629.56473351 753.72488594 C628.02119419 760.43095499 626.49092614 767.13986338 624.97107506 773.85133839 C624.04096077 777.9439441 623.09816239 782.03354974 622.15180588 786.12242699 C621.72235186 787.98980152 621.29813788 789.85839094 620.87984085 791.72829628 C617.93155238 804.89242277 614.95271789 817.14512629 604.44793701 826.42842102 C596.91968832 831.16046306 589.89508869 832.73785032 581.09407043 832.63923645 C579.56156376 832.64625493 579.56156376 832.64625493 577.99809736 832.6534152 C574.59968575 832.6642841 571.20202565 832.64690531 567.8036499 832.6295929 C565.3569975 832.63178035 562.91034615 832.63577952 560.46369934 832.64144897 C555.20691033 832.64999774 549.95027072 832.64670269 544.69349861 832.63302612 C537.08125906 832.6135945 529.46920479 832.62013445 521.85696023 832.63359994 C509.48859502 832.65515037 497.12027369 832.6619022 484.75189209 832.65644836 C484.01277883 832.65612773 483.27366556 832.6558071 482.51215493 832.65547675 C476.51641364 832.6527645 470.5206728 832.64933325 464.52493191 832.64587116 C459.28515575 832.64287592 454.04537955 832.64016767 448.80560303 832.63789368 C447.69874969 832.63740541 447.69874969 832.63740541 446.56953568 832.63690728 C434.24635414 832.63195757 421.92323342 832.6426718 409.60007089 832.66446543 C402.01104149 832.67713089 394.42226363 832.67576839 386.83324801 832.65601456 C381.01383525 832.64186828 375.19458148 832.6480394 369.37517357 832.66151237 C366.99480919 832.66363939 364.6144271 832.65894417 362.23409271 832.64680672 C358.9757569 832.63113288 355.71835661 832.64020608 352.46003723 832.65510559 C351.52616261 832.64461669 350.59228799 832.6341278 349.63011414 832.62332106 C340.62567525 832.71453301 331.96190991 835.12848395 325.27606201 841.39717102 C324.10237061 842.4567804 324.10237061 842.4567804 322.90496826 843.53779602 C317.94919423 849.43878898 315.92534655 856.18919647 314.24676514 863.59346008 C313.92336781 864.96355193 313.92336781 864.96355193 313.59343719 866.3613224 C312.88431225 869.37632668 312.18951852 872.39443986 311.49481201 875.41279602 C310.9953478 877.54948232 310.49500431 879.68596325 309.99383545 881.82225037 C308.66263112 887.50785649 307.3437695 893.196258 306.0274353 898.88532257 C304.67406757 904.72507973 303.30939063 910.56219258 301.94598389 916.39961243 C299.0799432 928.680236 296.22980542 940.96451066 293.38470459 953.25 C292.39651416 957.51579503 291.40660752 961.78119127 290.41668701 966.04658508 C287.16172285 980.07539925 283.92091674 994.10738858 280.71356201 1008.14717102 C337.78097695 1005.67624185 394.38060891 999.56716533 450.71356201 990.14717102 C451.60907776 989.99784119 452.50459351 989.84851135 453.42724609 989.69465637 C537.00393658 975.70401237 618.49356263 953.1910281 698.71356201 926.14717102 C699.5746759 925.8569104 700.43578979 925.56664978 701.32299805 925.26759338 C740.40544382 912.06081755 778.68386753 896.72748463 816.44586182 880.14265442 C818.57085009 879.20981922 820.69714517 878.28004052 822.82391357 877.35127258 C845.88421488 867.26787988 868.50622562 856.28180845 891.00219727 845.0040741 C894.89886845 843.05117664 898.80311696 841.11527404 902.71746826 839.19795227 C914.73851155 833.29034688 926.46876829 827.01720979 938.08465576 820.35029602 C942.59251982 817.76728604 947.14450637 815.28227058 951.72503662 812.83100891 C966.05673097 805.1519613 979.88212592 796.68128995 993.71356201 788.14717102 C994.75689697 787.50441223 995.80023193 786.86165344 996.87518311 786.19941711 C1001.36212377 783.43379427 1005.84573793 780.66291371 1010.32293701 777.88154602 C1011.05576904 777.42844055 1011.78860107 776.97533508 1012.54364014 776.50849915 C1014.03761772 775.57123328 1015.52019852 774.61563419 1016.99285889 773.6452179 C1017.71022217 773.17664368 1018.42758545 772.70806946 1019.16668701 772.22529602 C1019.80251709 771.80151672 1020.43834717 771.37773743 1021.09344482 770.94111633 C1021.6280835 770.67911438 1022.16272217 770.41711243 1022.71356201 770.14717102 C1023.70356201 770.64217102 1023.70356201 770.64217102 1024.71356201 771.14717102 C1018.06856721 776.58682372 1011.27927311 781.7055945 1004.21356201 786.58467102 C1003.22799316 787.26714905 1002.24242432 787.94962708 1001.22698975 788.65278625 C965.89330761 812.98957728 929.21338091 835.3198663 891.71356201 856.14717102 C890.82427002 856.64136536 889.93497803 857.13555969 889.01873779 857.64472961 C869.85750563 868.2618911 850.42927179 878.41155822 830.79168701 888.11982727 C827.70667156 889.64612245 824.63818646 891.20266234 821.57293701 892.76826477 C768.46326028 919.79034369 712.76467213 942.05662872 656.71356201 962.14717102 C655.45636353 962.5989975 655.45636353 962.5989975 654.17376709 963.05995178 C552.85486957 999.45659597 447.98357041 1025.89719286 270.71356201 1048.14717102 C270.59770941 1048.8141205 270.4818568 1049.48106998 270.36249352 1050.16823006 C269.17606184 1056.86162885 267.79059761 1063.48249037 266.25506592 1070.10371399 C266.01735977 1071.1378241 265.77965363 1072.1719342 265.53474426 1073.23738098 C264.75589941 1076.62200118 263.97323912 1080.00572387 263.19012451 1083.38935852 C262.64197045 1085.7638599 262.09390679 1088.13838214 261.54592896 1090.51292419 C260.39951776 1095.47752777 259.25103242 1100.44164626 258.10125732 1105.4054718 C256.63488377 1111.7375071 255.17518772 1118.07106073 253.71724892 1124.40504265 C252.58803826 1129.30626955 251.45448894 1134.2064856 250.31974411 1139.10643387 C249.78005523 1141.4398501 249.24186139 1143.77361267 248.70524979 1146.10773849 C239.76237842 1184.97980575 239.76237842 1184.97980575 226.31512451 1193.85810852 C219.62918175 1197.17096304 213.40838913 1198.59370241 205.97843933 1198.52812195 C205.1474329 1198.53280192 204.31642648 1198.53748189 203.46023804 1198.54230368 C200.70133218 1198.55418152 197.94292972 1198.54482498 195.184021 1198.53535461 C193.19569613 1198.53942349 191.20737352 1198.54476714 189.21905518 1198.55128479 C183.8369345 1198.56492563 178.45498693 1198.55967329 173.07286334 1198.55014753 C167.43250749 1198.54253526 161.79216614 1198.5496008 156.15180969 1198.55430603 C146.68221382 1198.55975856 137.21268822 1198.55258466 127.74310303 1198.5382843 C116.80318811 1198.52195408 105.86344091 1198.52725108 94.92353004 1198.54376352 C85.5203144 1198.55738705 76.11714918 1198.55929393 66.71392685 1198.55144751 C61.10228576 1198.54677639 55.49072345 1198.54613086 49.87908745 1198.55605698 C44.60373729 1198.5647371 39.32860296 1198.55868548 34.05327606 1198.54137421 C32.11995107 1198.53741518 30.18660785 1198.53853339 28.25329018 1198.5451622 C25.60918379 1198.55339076 22.965764 1198.5430405 20.32170105 1198.52812195 C19.56128035 1198.53481411 18.80085966 1198.54150628 18.01739591 1198.54840124 C11.86661037 1198.481337 6.24997538 1197.30508016 1.43621826 1193.20967102 C0.8883667 1192.52904602 0.34051514 1191.84842102 -0.22393799 1191.14717102 C-1.07278564 1190.12623352 -1.07278564 1190.12623352 -1.93878174 1189.08467102 C-5.83277181 1183.48635485 -4.8010955 1175.59721742 -3.84091568 1169.16057777 C-3.20633312 1166.05960692 -2.49507492 1162.98782974 -1.74786377 1159.9120636 C-1.47797638 1158.75433945 -1.20808899 1157.5966153 -0.93002319 1156.40380859 C-0.04314479 1152.61336494 0.86240227 1148.82765315 1.76824951 1145.04170227 C2.39390315 1142.39061131 3.01549538 1139.73857276 3.63717651 1137.08654785 C5.10455356 1130.83712432 6.58533677 1124.59096101 8.07119095 1118.34590787 C9.75500816 1111.26611921 11.42441569 1104.18295966 13.09232306 1097.09940875 C15.12894101 1088.45000551 17.16746385 1079.80107074 19.21792603 1071.15493774 C19.50496399 1069.94432678 19.79200195 1068.73371582 20.08773804 1067.48641968 C20.62052687 1065.24048129 21.15383951 1062.99466707 21.68780518 1060.74900818 C23.07734671 1054.89149793 24.42296751 1049.02730173 25.71356201 1043.14717102 C24.95132324 1043.10471252 24.18908447 1043.06225403 23.40374756 1043.01850891 C14.65478811 1042.44842605 6.13933804 1041.18873541 -2.47393799 1039.58467102 C-3.18030396 1039.45434479 -3.88666992 1039.32401855 -4.61444092 1039.18974304 C-52.19634797 1030.36325561 -99.59658651 1017.25608849 -143.28643799 996.14717102 C-143.98043701 995.8126593 -144.67443604 995.47814758 -145.38946533 995.13349915 C-149.39102864 993.19185623 -153.36308581 991.19822104 -157.31671143 989.1608429 C-158.64845984 988.47549096 -159.98251953 987.79461458 -161.31866455 987.11787415 C-185.63379642 974.7939234 -208.0004485 959.34989871 -228.28643799 941.14717102 C-228.83493408 940.66038879 -229.38343018 940.17360657 -229.94854736 939.67207336 C-273.50534229 900.92797237 -301.78268768 846.72741741 -305.28643799 788.14717102 C-307.62007032 737.39958845 -295.0290986 688.70714217 -273.28643799 643.14717102 C-272.89311279 642.30444641 -272.4997876 641.4617218 -272.09454346 640.59346008 C-250.70092359 594.8778161 -219.45371384 552.83058174 -185.55206299 515.65888977 C-183.65586661 513.55672723 -181.78961296 511.43470409 -179.93096924 509.29951477 C-170.33790851 498.31976728 -160.14234011 487.90425619 -149.84893799 477.58467102 C-148.92588867 476.65702942 -148.00283936 475.72938782 -147.05181885 474.77363586 C-142.55389401 470.28588273 -138.00539885 465.9358688 -133.1831665 461.79878235 C-129.84871555 458.89524769 -126.67626853 455.81963929 -123.47393799 452.77217102 C-118.07558964 447.66948529 -112.60399823 442.81668918 -106.79425049 438.18623352 C-104.21040765 436.08535196 -101.74650279 433.89130537 -99.28643799 431.64717102 C-94.62727774 427.4115708 -89.81099293 423.41328218 -84.90997314 419.46162415 C-83.08514678 417.98420082 -81.26950496 416.49590333 -79.45440674 415.00654602 C-61.43825954 400.24838539 -61.43825954 400.24838539 -52.28643799 394.14717102 C-53.57743408 394.13782532 -54.86843018 394.12847961 -56.19854736 394.11885071 C-61.01464615 394.07880541 -65.83011589 394.01300617 -70.64581299 393.93965149 C-72.72515751 393.91152603 -74.80460728 393.89026981 -76.88409424 393.87617493 C-79.8833369 393.85462864 -82.88132544 393.80791826 -85.88018799 393.75654602 C-87.261922 393.75470306 -87.261922 393.75470306 -88.67156982 393.75282288 C-95.92265561 393.59040094 -101.5133225 391.99326323 -106.66143799 386.70967102 C-111.99789719 378.29448535 -110.96810074 369.72548315 -108.98571205 360.33010483 C-107.96181504 355.75713197 -106.86695917 351.20231257 -105.76690674 346.64717102 C-105.27971337 344.58583173 -104.79376572 342.52419767 -104.30895996 340.46229553 C-103.26277543 336.02381884 -102.20838245 331.58740435 -101.14749146 327.15242004 C-99.44281073 320.02525009 -97.75673949 312.89375745 -96.0737915 305.76142883 C-94.29837037 298.24061519 -92.52188161 290.72006401 -90.73930359 283.20094299 C-84.89049291 258.5268873 -79.14024648 233.83028326 -73.40408325 209.12983704 C-71.72375235 201.89490747 -70.04074414 194.66060254 -68.35699463 187.4264679 C-68.0792133 186.23298233 -67.80143198 185.03949677 -67.51523304 183.80984497 C-66.95450295 181.40071956 -66.39376566 178.99159582 -65.83302116 176.58247375 C-61.88070451 159.60114337 -57.93093176 142.6192215 -53.98239231 125.63701248 C-51.75322338 116.05001157 -49.52287018 106.46328661 -47.29170132 96.87675095 C-45.73461415 90.18620298 -44.17891074 83.49533547 -42.6243372 76.80420303 C-41.66667557 72.68386724 -40.70762327 68.56385604 -39.74819374 64.44393158 C-39.31097006 62.56521544 -38.8742928 60.68637203 -38.4382534 58.80738068 C-37.26548925 53.75440769 -36.08224033 48.70413974 -34.88166046 43.65769958 C-34.47082808 41.9248913 -34.06348573 40.19125313 -33.65898895 38.45695496 C-33.02819884 35.759458 -32.38407727 33.0654404 -31.73712158 30.3717804 C-31.5506135 29.56340981 -31.36410542 28.75503922 -31.17194557 27.92217255 C-29.04412497 19.19356211 -25.48630082 10.65481941 -17.81378174 5.47920227 C-11.41731845 1.60451012 -7.50017585 -0.00168864 0 0 Z " fill="#0093DC" transform="translate(305.28643798828125,-0.1471710205078125)"/>
<path d="M0 0 C1.97035823 -0.00512655 1.97035823 -0.00512655 3.98052168 -0.01035666 C7.61112899 -0.01926935 11.24126122 -0.00334467 14.87180805 0.01675558 C18.79263053 0.03407002 22.71342738 0.02818106 26.63427734 0.02514648 C33.42226989 0.02305164 40.21010834 0.0355748 46.99806213 0.05809784 C56.81221165 0.09064083 66.62628684 0.10102721 76.44048446 0.10604981 C92.36429585 0.11479885 108.28802516 0.14140383 124.21179199 0.17926025 C139.67793366 0.21599045 155.144053 0.24429728 170.61022949 0.2612915 C172.04083469 0.26286784 172.04083469 0.26286784 173.500341 0.26447603 C178.28507858 0.26969628 183.06981633 0.27475109 187.85455418 0.27972364 C227.53293626 0.32117352 267.21122458 0.3919092 306.88952637 0.48101807 C306.88952637 3.78101807 306.88952637 7.08101807 306.88952637 10.48101807 C305.37745605 10.90511963 303.86538574 11.32922119 302.30749512 11.76617432 C270.2248929 20.87005858 236.29508211 32.3021205 214.88952637 59.48101807 C216.01173584 59.46035278 216.01173584 59.46035278 217.15661621 59.43927002 C228.63904639 59.32692904 240.05731626 59.96803891 251.51452637 60.66851807 C252.58110474 60.7334848 253.64768311 60.79845154 254.74658203 60.86538696 C345.52081436 66.50360606 436.64350463 84.48470864 566.88952637 159.48101807 C567.87179199 160.24929932 568.85405762 161.01758057 569.86608887 161.80914307 C577.19647408 167.68190125 584.08255812 174.01641212 590.88952637 180.48101807 C592.13089355 181.65857666 592.13089355 181.65857666 593.39733887 182.85992432 C599.04741981 188.36235506 604.00887659 194.29334682 608.88952637 200.48101807 C609.67069824 201.44523682 610.45187012 202.40945557 611.25671387 203.40289307 C634.70369897 232.9176283 649.35479922 267.44612334 655.88952637 304.48101807 C656.06838379 305.49236816 656.24724121 306.50371826 656.43151855 307.54571533 C657.04414779 312.80955892 657.09187004 318.02136857 657.12780762 323.31695557 C657.13587936 324.46854156 657.14395111 325.62012756 657.15226746 326.80661011 C657.16607509 329.24917108 657.17681203 331.69175109 657.18469238 334.13433838 C657.19609855 336.58329091 657.21636451 339.03222091 657.24621582 341.48101807 C658.37415361 434.23657271 605.65420783 518.56443188 547.29284668 586.83502197 C545.79575079 588.59101023 544.30722571 590.35404629 542.81921387 592.11773682 C538.00230237 597.80825954 533.18517296 603.37756376 527.81190491 608.55769348 C525.9801057 610.39039416 524.29074958 612.280953 522.60803223 614.25030518 C519.12411944 618.26018512 515.46710977 622.04858946 511.70593262 625.79742432 C511.04673325 626.45758041 510.38753387 627.11773651 509.70835876 627.79789734 C508.32555802 629.18137313 506.94151561 630.5636089 505.55627441 631.94464111 C503.45722294 634.03833476 501.36356697 636.13731681 499.27038574 638.23687744 C497.91588851 639.59071377 496.56108105 640.94423982 495.20593262 642.29742432 C494.59109512 642.91428604 493.97625763 643.53114777 493.3427887 644.16670227 C489.59355943 647.89615036 485.72848582 651.43927292 481.71990967 654.88874817 C478.76179719 657.46204167 475.92851652 660.1659641 473.07702637 662.85601807 C468.03520994 667.57849239 462.86588069 672.04753957 457.47155762 676.36773682 C454.84530869 678.51720833 452.33319184 680.75561895 449.82702637 683.04351807 C445.89435504 686.61867382 441.85717172 689.98993072 437.68249512 693.27789307 C435.65215301 694.87944964 433.63547767 696.4921959 431.62780762 698.12164307 C422.02890532 705.89590588 412.18946219 713.3218574 402.28063965 720.69537354 C400.09981788 722.32397578 397.92792916 723.96340455 395.76062012 725.60992432 C385.33483427 733.52193155 374.67181128 741.0635429 363.88952637 748.48101807 C362.93594238 749.1411792 361.9823584 749.80134033 360.99987793 750.48150635 C358.11689914 752.47245308 355.22376757 754.44766332 352.32702637 756.41851807 C351.42830811 757.04032959 350.52958984 757.66214111 349.6036377 758.30279541 C348.76856689 758.86563232 347.93349609 759.42846924 347.07312012 760.00836182 C346.33634033 760.51101563 345.59956055 761.01366943 344.8404541 761.53155518 C342.88952637 762.48101807 342.88952637 762.48101807 339.88952637 761.48101807 C344.56014499 757.1524397 349.32816801 753.07858443 354.45202637 749.29351807 C365.08990883 741.43014693 375.24728603 732.94271639 385.30944824 724.35992432 C388.60520782 721.55136398 391.94880945 718.81450102 395.32702637 716.10601807 C401.00949936 711.48693183 406.32005616 706.50642759 411.65515137 701.49664307 C414.16581514 699.14271437 416.71790508 696.85107592 419.32702637 694.60601807 C422.37748767 691.97653338 425.20571134 689.18834674 428.02429199 686.31378174 C429.78510397 684.58362263 431.59901716 682.98159985 433.47937012 681.38336182 C438.52721967 676.99276619 443.23386304 672.28301446 447.95202637 667.54351807 C448.81118652 666.6882251 449.67034668 665.83293213 450.55554199 664.95172119 C454.94138717 660.55917495 459.17614088 656.10380196 463.22033691 651.39532471 C466.13159471 648.05655443 469.21148 644.87706562 472.26452637 641.66851807 C477.30847805 636.32739088 482.15385332 630.91452172 486.73327637 625.16461182 C488.69743631 622.72008667 490.71685592 620.33353119 492.76306152 617.95758057 C552.29416155 548.69117117 602.03721859 456.89717543 596.42663574 360.50299072 C591.43516652 300.29068047 561.97266138 244.54610152 515.88952637 205.48101807 C511.30666496 201.70484092 506.61598918 198.07490143 501.88952637 194.48101807 C501.301875 194.03113525 500.71422363 193.58125244 500.10876465 193.11773682 C449.72240927 154.70177347 389.03797925 132.0419994 327.88952637 117.48101807 C326.61029297 117.17567139 325.33105957 116.87032471 324.01306152 116.5557251 C281.16749988 106.47029881 237.6581592 101.56553538 193.88952637 97.48101807 C193.65429764 98.69377914 193.41906891 99.90654022 193.17671204 101.15605164 C190.79838511 113.30025448 188.13234788 125.35140876 185.27624512 137.39117432 C184.82871246 139.28943278 184.38151842 141.18777109 183.93463135 143.08618164 C182.98164925 147.13224346 182.02678449 151.17785414 181.07040405 155.22311401 C178.76249253 164.98675901 176.46682357 174.75328692 174.16977119 184.5194912 C173.36882521 187.92447284 172.56754135 191.32937485 171.76622009 194.73426819 C166.42381786 217.43909203 161.11175724 240.15094063 155.82351685 262.86843872 C154.83750233 267.1036629 153.84966332 271.33845448 152.8600769 275.57284546 C146.34511111 303.42463491 146.34511111 303.42463491 140.23718262 331.36773682 C139.99084579 332.51949905 139.74450897 333.67126129 139.4907074 334.85792542 C137.83812057 342.88455046 136.57795614 349.28477047 140.70202637 356.68804932 C144.00863294 361.68059016 147.7750149 362.9095457 153.33947909 364.0757333 C157.68695663 364.76668771 161.99087248 364.75794026 166.38444519 364.73930359 C167.40470616 364.74297929 168.42496712 364.746655 169.47614509 364.75044209 C172.87530241 364.76037674 176.27429468 364.75628036 179.67346191 364.7522583 C182.11822686 364.7566478 184.56299031 364.76195078 187.00775146 364.76809692 C192.26233654 364.77957797 197.51689402 364.78524791 202.7714901 364.78597832 C210.37517176 364.7873075 217.9787803 364.8024493 225.58243606 364.82147349 C237.92933797 364.85226997 250.27624174 364.87645803 262.62316895 364.89434814 C263.7301685 364.89595717 263.7301685 364.89595717 264.85953168 364.89759869 C273.09808458 364.9094256 281.33663822 364.91963178 289.57519531 364.92803955 C292.56579592 364.93111379 295.55639651 364.93420253 298.54699707 364.93731689 C299.65400452 364.9384649 299.65400452 364.9384649 300.78337576 364.9396361 C313.08955559 364.95271799 325.39568218 364.977354 337.70182258 365.0110603 C345.28690182 365.03133941 352.87186721 365.04164121 360.45697377 365.03907109 C366.26522093 365.03791363 372.07335151 365.05206218 377.88156128 365.07188034 C380.26401435 365.07748851 382.64648581 365.07795716 385.0289402 365.07294273 C388.27801755 365.06682039 391.52653032 365.07899896 394.77555847 365.0957489 C396.19340347 365.08643118 396.19340347 365.08643118 397.6398918 365.07692522 C403.69016468 365.13386554 408.13365461 365.93891414 412.75280762 370.19976807 C413.4701709 371.08148682 413.4701709 371.08148682 414.20202637 371.98101807 C414.69315918 372.56883057 415.18429199 373.15664307 415.69030762 373.76226807 C419.65699982 379.44742954 418.55538038 387.51923286 417.46317673 394.01776886 C415.9729994 401.52451511 414.14654684 408.9560302 412.35437012 416.39508057 C411.76616998 418.88384179 411.17930837 421.37291968 410.59368896 423.86228943 C409.34141436 429.17362051 408.08065725 434.48281761 406.8119812 439.79025269 C404.80188448 448.20019501 402.81260015 456.61499054 400.82629395 465.03057861 C400.15332377 467.88075531 399.48018732 470.7308927 398.80696106 473.58100891 C398.64008598 474.28751192 398.47321091 474.99401492 398.30127901 475.72192711 C397.11537077 480.74138997 395.92657958 485.76016477 394.7363739 490.77861023 C389.2399495 513.95616316 383.82448433 537.15195058 378.45147705 560.35842896 C376.3908851 569.25813276 374.32510467 578.15663242 372.25931931 587.05513191 C371.80022137 589.03278408 371.34117827 591.01044897 370.8821907 592.98812675 C367.02252268 609.61836566 363.14971583 626.24552487 359.27233887 642.87164307 C358.71570119 645.25878348 358.15906564 647.64592439 357.60243225 650.0330658 C355.18954103 660.38021173 352.77604679 670.72721601 350.36047363 681.07373619 C349.37773203 685.28388314 348.39574274 689.49420533 347.41392136 693.70456696 C346.96209203 695.64135959 346.50993091 697.57807486 346.05739212 699.51470184 C345.43130839 702.19410755 344.8062736 704.87375513 344.1817627 707.55352783 C343.88882324 708.80833482 343.88882324 708.80833482 343.58996582 710.08849144 C342.62426259 714.24395302 341.68259452 718.40302314 340.78048706 722.57278442 C340.60282397 723.39064139 340.42516088 724.20849836 340.24211407 725.05113888 C339.9113533 726.58204476 339.5847428 728.1138563 339.26329517 729.64674473 C337.11095879 739.61454156 332.98600988 747.15564032 324.88952637 753.48101807 C317.15950674 758.2180118 310.6894536 759.6316594 301.67338562 759.62145996 C300.43812786 759.62591664 300.43812786 759.62591664 299.17791539 759.63046336 C296.4205612 759.63912974 293.66325052 759.64065686 290.90588379 759.64215088 C288.92800301 759.64678047 286.95012312 759.65180532 284.97224426 759.65719604 C279.60027402 759.67030743 274.22831628 759.6767624 268.85633254 759.6812067 C265.4995143 759.68413912 262.14269947 759.68824422 258.78588295 759.69271088 C248.28122733 759.70638172 237.77657951 759.71605072 227.27191561 759.71991277 C215.14913796 759.72439435 203.026473 759.74194871 190.90372962 759.77091336 C181.53033059 759.79253122 172.15696328 759.80261709 162.78353959 759.80395389 C157.18635462 759.80500172 151.58927564 759.81090524 145.99211693 759.8287735 C140.72669243 759.84525617 135.46145361 759.84740867 130.1960125 759.83863449 C128.26590731 759.83786426 126.33579214 759.842205 124.40571213 759.85209274 C121.76579381 759.86482155 119.12653225 759.85893046 116.48661804 759.84851074 C115.72735982 759.85656715 114.96810159 759.86462355 114.18583554 759.87292409 C106.84350486 759.80539382 100.20947942 757.80097112 94.88952637 752.48101807 C90.81408861 746.36786144 90.22838854 738.92105195 91.58442688 731.80537415 C91.95757689 730.17404718 92.34764802 728.54652413 92.7520752 726.92266846 C92.96280607 726.02120275 93.17353695 725.11973705 93.39065361 724.19095421 C94.09049508 721.21235369 94.81234656 718.23954446 95.53405762 715.26617432 C96.03952981 713.13186902 96.54338413 710.99718 97.04573059 708.86213684 C98.10827443 704.35464144 99.17901426 699.84920701 100.25579834 695.34509277 C101.84546085 688.68404358 103.40129697 682.01548745 104.94567871 675.34381104 C105.19751262 674.2561249 105.44934652 673.16843876 105.70881176 672.04779243 C106.22176335 669.83196423 106.73465256 667.61612159 107.24748039 665.40026474 C108.57305058 659.67994745 109.90600576 653.96135315 111.2388916 648.24273682 C111.50962651 647.08097364 111.78036142 645.91921047 112.05930042 644.72224236 C112.61494301 642.33792452 113.17060957 639.95361227 113.72629929 637.56930542 C115.1877104 631.29784501 116.64804148 625.02613309 118.10852051 618.75445557 C124.45663226 591.49594521 130.80982552 564.23861863 137.16511536 536.98178101 C139.72220934 526.014271 142.27783547 515.04642303 144.82971191 504.07769775 C145.55153408 500.97546867 146.27338383 497.873246 146.99526405 494.77103043 C147.46059213 492.77131138 147.92588273 490.77158362 148.39113426 488.77184677 C151.10022764 477.12965696 153.82548237 465.49153127 156.57879829 453.85972214 C157.59675726 449.55344303 158.60733153 445.24542438 159.61856079 440.93756104 C160.35321366 437.82249097 161.09938712 434.71035044 161.84631348 431.59820557 C162.26765757 429.80279439 162.68836576 428.0072338 163.10827637 426.21148682 C163.29443008 425.45325119 163.4805838 424.69501556 163.67237854 423.9138031 C165.46502897 416.11909343 166.24262009 408.333523 162.16296387 401.17242432 C159.2569014 397.31253154 155.52583991 395.39216839 150.88952637 394.48101807 C149.42306652 394.39316806 147.95319272 394.35447323 146.48410416 394.35352612 C145.60325787 394.35051847 144.72241158 394.34751082 143.81487298 394.34441203 C142.85146233 394.3461624 141.88805169 394.34791277 140.89544678 394.34971619 C139.86861841 394.34760047 138.84179004 394.34548476 137.78384566 394.34330493 C134.33240829 394.33729862 130.88100741 394.33830554 127.42956543 394.33917236 C124.95922788 394.33614129 122.48889089 394.33261998 120.01855469 394.3286438 C114.69295393 394.32075048 109.36736051 394.3155878 104.04175568 394.31235313 C95.62118009 394.3068531 87.20064493 394.28995192 78.78009033 394.27101135 C75.89836509 394.26465468 73.01663974 394.25834622 70.1349144 394.25203419 C69.41473584 394.25045042 68.69455728 394.24886666 67.95255513 394.24723491 C59.75544168 394.22929993 51.55832537 394.21307296 43.36120605 394.19805908 C42.61193162 394.19668321 41.86265719 394.19530734 41.09067747 394.19388977 C28.95220157 394.17196602 16.81373609 394.16120489 4.67524388 394.15368833 C-7.79126494 394.14561292 -20.25768447 394.12230885 -32.72414231 394.08573467 C-40.41101512 394.06372772 -48.09770425 394.05403945 -55.78460696 394.060235 C-61.67835346 394.06378938 -67.5719235 394.04652408 -73.46562195 394.02155685 C-75.88109106 394.0146348 -78.29659081 394.01452936 -80.71205902 394.02175713 C-84.01121325 394.03063177 -87.30938501 394.0149727 -90.60845947 393.99327087 C-91.56294723 394.00171341 -92.51743499 394.01015595 -93.50084662 394.01885432 C-100.14201452 393.93815018 -105.72982386 392.69336775 -110.6707685 387.99839991 C-115.81627782 382.09565051 -115.73751066 376.2697988 -115.32829666 368.73351669 C-114.52951652 360.4733654 -112.1856597 352.35660968 -110.23156738 344.31304932 C-109.71005743 342.11524004 -109.19000465 339.91708457 -108.67129517 337.71861267 C-107.56043774 333.02313913 -106.44006122 328.33008361 -105.31192017 323.63873291 C-103.5268084 316.2147944 -101.76286086 308.78593178 -100.00280762 301.35601807 C-98.1856342 293.68865843 -96.36738444 286.02156751 -94.54194641 278.35617065 C-88.73030955 253.94716702 -83.04598404 229.50934564 -77.38701248 205.06457138 C-75.5775808 197.25060008 -73.76463583 189.4374429 -71.95153236 181.62432289 C-71.52212497 179.77387272 -71.09278094 177.92340784 -70.66350365 176.07292747 C-65.51190633 153.86797177 -60.31306645 131.67407187 -55.11047363 109.48101807 C-72.52626502 111.65784913 -72.52626502 111.65784913 -89.86047363 114.39117432 C-90.83187286 114.55930634 -91.80327209 114.72743835 -92.80410767 114.90066528 C-95.90751823 115.44123989 -99.00916397 115.99102516 -102.11047363 116.54351807 C-103.19842224 116.73632355 -104.28637085 116.92912903 -105.4072876 117.1277771 C-142.95993575 123.80769451 -180.16031534 132.0343616 -217.11047363 141.48101807 C-217.99632141 141.70704712 -218.88216919 141.93307617 -219.79486084 142.16595459 C-248.60837171 149.5314071 -277.11535038 157.7520256 -305.48919678 166.65869141 C-307.98044644 167.44022694 -310.4728068 168.218114 -312.9654541 168.99517822 C-332.14017005 174.98601891 -351.09421093 181.52453151 -369.98547363 188.35601807 C-370.98416473 188.71700592 -371.98285583 189.07799377 -373.0118103 189.44992065 C-383.39182511 193.21039434 -393.71045431 197.0709521 -403.94104004 201.22076416 C-408.2010084 202.91464466 -412.51478182 204.40034347 -416.86047363 205.85601807 C-426.81850477 209.27667201 -436.46106435 213.27853458 -446.11047363 217.48101807 C-448.1299371 218.35617449 -450.14947154 219.23116717 -452.16906738 220.10601807 C-456.9511394 222.18008407 -461.72987187 224.26166866 -466.50598145 226.34942627 C-468.49307873 227.21277422 -470.48423565 228.06678461 -472.47717285 228.91656494 C-476.0995886 230.47633111 -479.69934595 232.08077162 -483.29016113 233.71148682 C-483.96770447 234.01894836 -484.6452478 234.32640991 -485.34332275 234.64318848 C-499.88060256 241.24999362 -514.36599597 247.95335548 -528.73547363 254.91851807 C-529.77077713 255.42019501 -529.77077713 255.42019501 -530.82699585 255.93200684 C-539.51344731 260.15037954 -548.15600665 264.44196465 -556.57189941 269.18389893 C-558.05515906 270.00547462 -559.57898516 270.7532895 -561.11047363 271.48101807 C-561.77047363 271.15101807 -562.43047363 270.82101807 -563.11047363 270.48101807 C-549.23109955 262.44824269 -535.22015531 254.69573522 -521.09924316 247.09674072 C-518.14719364 245.50086882 -515.2035638 243.89058088 -512.26281738 242.27398682 C-511.31205322 241.7519165 -510.36128906 241.22984619 -509.38171387 240.69195557 C-507.62605038 239.72681239 -505.87151223 238.75961692 -504.11853027 237.78961182 C-496.22884634 233.45942353 -488.17604714 229.4700778 -480.11047363 225.48101807 C-479.11829834 224.98896378 -479.11829834 224.98896378 -478.1060791 224.48696899 C-473.36507869 222.13616438 -468.61607721 219.80213526 -463.86047363 217.48101807 C-463.12644318 217.12261841 -462.39241272 216.76421875 -461.63613892 216.3949585 C-448.2316486 209.86581287 -434.6742883 203.71961654 -421.01379395 197.74664307 C-419.58627748 197.1218889 -418.15886555 196.49689581 -416.73156738 195.87164307 C-416.04759888 195.57212234 -415.36363037 195.27260162 -414.65893555 194.96400452 C-411.12426705 193.40552468 -407.64814329 191.78044593 -404.21594238 190.00836182 C-396.67553009 186.16231932 -388.80116452 183.0295396 -380.98547363 179.79351807 C-380.10376495 179.42785736 -379.22205627 179.06219666 -378.31362915 178.68545532 C-342.75922268 163.97859892 -306.55074751 150.81764366 -270.11047363 138.48101807 C-268.97977448 138.09810608 -268.97977448 138.09810608 -267.82623291 137.7074585 C-101.39254903 81.48101807 -101.39254903 81.48101807 -48.11047363 81.48101807 C-47.86937866 80.23421265 -47.86937866 80.23421265 -47.62341309 78.96221924 C-45.564945 68.482168 -43.31326291 58.05052326 -40.94128418 47.63702393 C-40.51151369 45.73738943 -40.08803268 43.83632134 -39.67077637 41.93389893 C-33.15747462 12.2689783 -33.15747462 12.2689783 -21.11047363 4.48101807 C-14.03701353 0.09163339 -8.21319846 -0.0783229 0 0 Z " fill="#EA891A" transform="translate(889.1104736328125,-0.48101806640625)"/>
<path d="M0 0 C1.25619702 -0.00573832 1.25619702 -0.00573832 2.53777176 -0.01159257 C5.33042679 -0.02187152 8.12287425 -0.01794016 10.9155426 -0.01396179 C12.92327565 -0.01831107 14.93100703 -0.02349493 16.93873596 -0.02944946 C22.38291859 -0.04282687 27.82703174 -0.04341957 33.2712276 -0.04088616 C37.81898114 -0.03981569 42.36672067 -0.04470172 46.91447121 -0.04949158 C57.64416845 -0.06058222 68.37383068 -0.06102653 79.10353088 -0.05497742 C90.16722853 -0.04893587 101.23079906 -0.06125429 112.29447502 -0.08254749 C121.79955399 -0.10016736 131.3045925 -0.10616427 140.8096872 -0.10290974 C146.48396357 -0.10109751 152.15814925 -0.10372724 157.83241081 -0.11762428 C163.16845923 -0.13020437 168.50430952 -0.12825669 173.84035492 -0.11521339 C175.79625834 -0.11284855 177.75217571 -0.11557899 179.70806313 -0.12383652 C182.38291569 -0.13431333 185.05710456 -0.12619588 187.73193359 -0.11352539 C188.50150042 -0.12089968 189.27106726 -0.12827396 190.06395429 -0.13587171 C195.70550746 -0.07984901 201.59812454 0.70813839 205.96140188 4.64180297 C211.60771724 11.18500249 212.17949227 16.59661613 211.65258026 25.07065964 C210.84901926 32.95796325 208.66714451 40.68898053 206.79664612 48.37397766 C206.29504931 50.4863645 205.79492992 52.59910261 205.29615784 54.7121582 C204.21776168 59.26818192 203.12983726 63.82178263 202.03437805 68.37373352 C200.26875585 75.711846 198.5251176 83.05507338 196.78541565 90.39936829 C194.93276962 98.21733813 193.07938291 106.03511802 191.21922302 113.8513031 C185.10202556 139.56177613 179.11075405 165.30102573 173.13921547 191.04566002 C171.09447951 199.86061488 169.04537648 208.67454283 166.99281716 217.48767924 C161.33291327 241.79059825 155.6857553 266.09602346 150.11967468 290.42063904 C148.1804685 298.8948739 146.23176344 307.36691545 144.28063011 315.83841133 C142.7370908 322.54448039 141.20682275 329.25338877 139.68697166 335.96486378 C138.75685737 340.05746949 137.814059 344.14707513 136.86770248 348.23595238 C136.43824847 350.10332691 136.01403449 351.97191633 135.59573746 353.84182167 C132.64744899 367.00594817 129.66861449 379.25865168 119.16383362 388.54194641 C111.63558493 393.27398845 104.61098529 394.85137571 95.80996704 394.75276184 C94.78829593 394.75744083 93.76662481 394.76211982 92.71399397 394.76694059 C89.31558236 394.77780949 85.91792226 394.7604307 82.51954651 394.74311829 C80.07289411 394.74530574 77.62624276 394.74930491 75.17959595 394.75497437 C69.92280694 394.76352313 64.66616732 394.76022808 59.40939522 394.74655151 C51.79715567 394.72711989 44.1851014 394.73365984 36.57285684 394.74712533 C24.20449163 394.76867576 11.8361703 394.77542759 -0.5322113 394.76997375 C-1.27132457 394.76965312 -2.01043783 394.76933249 -2.77194846 394.76900214 C-8.76768975 394.76628989 -14.76343059 394.76285864 -20.75917149 394.75939655 C-25.99894764 394.75640131 -31.23872384 394.75369306 -36.47850037 394.75141907 C-37.5853537 394.7509308 -37.5853537 394.7509308 -38.71456771 394.75043267 C-51.03774925 394.74548296 -63.36086997 394.75619719 -75.6840325 394.77799082 C-83.2730619 394.79065628 -90.86183977 394.78929378 -98.45085538 394.76953995 C-104.27026814 394.75539367 -110.08952192 394.7615648 -115.90892982 394.77503777 C-118.28929421 394.77716478 -120.66967629 394.77246956 -123.05001068 394.76033211 C-126.30834649 394.74465827 -129.56574678 394.75373147 -132.82406616 394.76863098 C-133.75794078 394.75814209 -134.6918154 394.74765319 -135.65398926 394.73684645 C-144.65842814 394.8280584 -153.32219348 397.24200934 -160.00804138 403.51069641 C-161.18173279 404.57030579 -161.18173279 404.57030579 -162.37913513 405.65132141 C-167.33490916 411.55231437 -169.35875684 418.30272187 -171.03733826 425.70698547 C-171.36073559 427.07707732 -171.36073559 427.07707732 -171.6906662 428.47484779 C-172.39979115 431.48985207 -173.09458487 434.50796525 -173.78929138 437.52632141 C-174.2887556 439.66300771 -174.78909909 441.79948864 -175.29026794 443.93577576 C-176.62147227 449.62138188 -177.9403339 455.30978339 -179.25666809 460.99884796 C-180.61003583 466.83860512 -181.97471276 472.67571797 -183.33811951 478.51313782 C-186.20416019 490.79376139 -189.05429797 503.07803606 -191.8993988 515.36352539 C-192.88758923 519.62932042 -193.87749588 523.89471666 -194.86741638 528.16011047 C-198.12238055 542.18892464 -201.36318666 556.22091397 -204.57054138 570.26069641 C-147.50312644 567.78976724 -90.90349448 561.68069072 -34.57054138 552.26069641 C-33.67502563 552.11136658 -32.77950989 551.96203674 -31.8568573 551.80818176 C51.71983319 537.81753776 133.20945923 515.30455349 213.42945862 488.26069641 C214.72112946 487.82530548 214.72112946 487.82530548 216.03889465 487.38111877 C255.12134043 474.17434295 293.39976414 458.84101003 331.16175842 442.25617981 C333.2867467 441.32334462 335.41304178 440.39356592 337.53981018 439.46479797 C360.60011149 429.38140527 383.22212222 418.39533384 405.71809387 407.11759949 C409.61476505 405.16470203 413.51901357 403.22879943 417.43336487 401.31147766 C429.45440816 395.40387227 441.1846649 389.13073518 452.80055237 382.46382141 C457.30841643 379.88081143 461.86040298 377.39579598 466.44093323 374.9445343 C480.77262758 367.26548669 494.59802253 358.79481534 508.42945862 350.26069641 C509.99446106 349.29655823 509.99446106 349.29655823 511.59107971 348.3129425 C516.07802038 345.54731966 520.56163453 342.7764391 525.03883362 339.99507141 C525.77166565 339.54196594 526.50449768 339.08886047 527.25953674 338.62202454 C528.75351433 337.68475867 530.23609513 336.72915958 531.70875549 335.75874329 C532.42611877 335.29016907 533.14348206 334.82159485 533.88258362 334.33882141 C534.5184137 333.91504211 535.15424377 333.49126282 535.80934143 333.05464172 C536.3439801 332.79263977 536.87861877 332.53063782 537.42945862 332.26069641 C538.08945862 332.59069641 538.74945862 332.92069641 539.42945862 333.26069641 C532.78446381 338.70034911 525.99516972 343.81911989 518.92945862 348.69819641 C517.94388977 349.38067444 516.95832092 350.06315247 515.94288635 350.76631165 C480.60920422 375.10310267 443.92927752 397.4333917 406.42945862 418.26069641 C405.09552063 419.00198792 405.09552063 419.00198792 403.7346344 419.758255 C384.57340223 430.37541649 365.1451684 440.52508362 345.50758362 450.23335266 C342.42256816 451.75964784 339.35408307 453.31618774 336.28883362 454.88179016 C283.17915689 481.90386908 227.48056874 504.17015411 171.42945862 524.26069641 C170.17226013 524.71252289 170.17226013 524.71252289 168.8896637 525.17347717 C67.57076618 561.57012136 -37.30053299 588.01071825 -214.57054138 610.26069641 C-214.68639399 610.92764589 -214.80224659 611.59459538 -214.92160988 612.28175545 C-216.10804156 618.97515424 -217.49350578 625.59601576 -219.02903748 632.21723938 C-219.26674362 633.25134949 -219.50444977 634.28545959 -219.74935913 635.35090637 C-220.52820398 638.73552658 -221.31086427 642.11924926 -222.09397888 645.50288391 C-222.64213294 647.87738529 -223.1901966 650.25190753 -223.73817444 652.62644958 C-224.88458564 657.59105316 -226.03307097 662.55517165 -227.18284607 667.51899719 C-228.64921962 673.85103249 -230.10891568 680.18458612 -231.56685448 686.51856804 C-232.69606514 691.41979494 -233.82961445 696.32001099 -234.96435928 701.21995926 C-235.50404816 703.55337549 -236.042242 705.88713806 -236.57885361 708.22126389 C-245.52172497 747.09333114 -245.52172497 747.09333114 -258.96897888 755.97163391 C-265.65492165 759.28448843 -271.87571426 760.7072278 -279.30566406 760.64164734 C-280.5521737 760.6486673 -280.5521737 760.6486673 -281.82386535 760.65582907 C-284.58277121 760.66770691 -287.34117367 760.65835037 -290.1000824 760.64888 C-292.08840726 760.65294888 -294.07672987 760.65829254 -296.06504822 760.66481018 C-301.4471689 760.67845102 -306.82911647 760.67319868 -312.21124005 760.66367292 C-317.8515959 760.65606065 -323.49193725 760.66312619 -329.1322937 760.66783142 C-338.60188957 760.67328395 -348.07141517 760.66611005 -357.54100037 760.65180969 C-368.48091528 760.63547947 -379.42066249 760.64077647 -390.36057335 760.65728891 C-399.76378899 760.67091244 -409.16695422 760.67281932 -418.57017654 760.6649729 C-424.18181764 760.66030178 -429.79337995 760.65965625 -435.40501595 760.66958237 C-440.6803661 760.67826249 -445.95550043 760.67221087 -451.23082733 760.6548996 C-453.16415232 760.65094057 -455.09749554 760.65205878 -457.03081322 760.65868759 C-459.67491961 760.66691616 -462.31833939 760.65656589 -464.96240234 760.64164734 C-466.10303339 760.65168559 -466.10303339 760.65168559 -467.26670748 760.66192663 C-473.41749303 760.59486239 -479.03412802 759.41860555 -483.84788513 755.32319641 C-484.39573669 754.64257141 -484.94358826 753.96194641 -485.50804138 753.26069641 C-486.07393982 752.58007141 -486.63983826 751.89944641 -487.22288513 751.19819641 C-491.09847204 745.62633814 -490.08395648 737.76761039 -489.14500618 731.35405159 C-488.54043446 728.37453644 -487.85990313 725.42442538 -487.14305115 722.46992493 C-486.88440781 721.35717697 -486.62576447 720.24442902 -486.35928345 719.09796143 C-485.50616234 715.44207444 -484.63425021 711.790956 -483.76194763 708.13960266 C-483.15461933 705.55521776 -482.54832259 702.97061143 -481.94332886 700.38568115 C-480.67158386 694.96116434 -479.39031342 689.53897563 -478.10203552 684.11836243 C-476.31836782 676.6133244 -474.55086555 669.10455674 -472.7872746 661.59477925 C-467.28204721 638.15913631 -461.71680474 614.73876523 -455.98550987 591.35725784 C-453.52023787 581.29091349 -451.17674191 571.2046475 -448.96136475 561.08000183 C-446.63033648 550.44631355 -444.18782767 539.83942551 -441.73460388 529.23335266 C-441.51546074 528.28557009 -441.2963176 527.33778751 -441.07053375 526.36128426 C-438.47349558 515.13249688 -435.86708726 503.90588848 -433.25804138 492.67988586 C-433.01378796 491.6288716 -432.76953453 490.57785734 -432.51787949 489.49499416 C-431.5312377 485.24971234 -430.54459324 481.00443132 -429.55721283 476.75932121 C-426.64895508 464.2549135 -423.76057227 451.74637524 -420.91169739 439.228302 C-419.64514292 433.66448401 -418.36712679 428.10332359 -417.08508492 422.54305553 C-416.24918106 418.91466522 -415.41948825 415.28510886 -414.60502625 411.65184021 C-413.71636278 407.68759195 -412.80087234 403.73001156 -411.88304138 399.77241516 C-411.6338797 398.63825165 -411.38471802 397.50408813 -411.12800598 396.33555603 C-408.56608546 385.48435802 -403.87534605 376.68568895 -394.57054138 370.26069641 C-387.73957757 366.70185436 -381.63144954 365.68039343 -374.00679016 365.75517273 C-372.99116945 365.74908261 -371.97554875 365.74299249 -370.92915165 365.73671782 C-367.55140158 365.72119494 -364.17436843 365.73387545 -360.7966156 365.74653625 C-358.36479753 365.74107214 -355.93298291 365.7338288 -353.50117493 365.72494507 C-348.27713197 365.70963444 -343.05322808 365.70628555 -337.82917404 365.71371078 C-330.26751709 365.72426171 -322.70604628 365.7107936 -315.14441408 365.69124623 C-302.86246499 365.65995807 -290.5805554 365.64490578 -278.29856873 365.64155579 C-277.56464976 365.6413518 -276.8307308 365.64114781 -276.07457186 365.64093764 C-275.3397379 365.64073427 -274.60490394 365.6405309 -273.84780228 365.64032137 C-263.42578615 365.63740025 -253.00378222 365.630593 -242.58177185 365.61909485 C-241.84814741 365.61828955 -241.11452296 365.61748426 -240.35866748 365.61665456 C-228.11800404 365.60289037 -215.87736233 365.58109645 -203.63671887 365.55522501 C-196.0953503 365.53980389 -188.55405291 365.53256475 -181.01266886 365.53601994 C-175.23510298 365.53830487 -169.4575818 365.53094012 -163.68002701 365.52013969 C-161.31292099 365.5174579 -158.9458082 365.51820693 -156.57870483 365.52264977 C-153.34582646 365.52829784 -150.11318959 365.52173631 -146.88032532 365.51225281 C-145.94549407 365.51691602 -145.01066282 365.52157923 -144.04750335 365.52638376 C-133.87355059 365.46817179 -124.573822 363.15652174 -116.88304138 356.19819641 C-108.37167678 346.79608895 -106.4875092 333.70274567 -103.78147888 321.73335266 C-103.32610381 319.75973883 -102.86965713 317.78637199 -102.41223145 315.81323242 C-101.4286265 311.56046299 -100.45229459 307.30611384 -99.48164368 303.05036926 C-97.91870331 296.19821356 -96.33970353 289.34981874 -94.75828552 282.50190735 C-92.79610951 274.00078001 -90.8376546 265.49881205 -88.88373661 256.99578285 C-85.21424493 241.02951024 -81.51183163 225.07105793 -77.79319763 209.11616516 C-77.51341127 207.91549219 -77.23362492 206.71481922 -76.94536018 205.47776222 C-75.24936566 198.19996649 -73.55256106 190.92235983 -71.85548019 183.64481735 C-69.31891589 172.76712175 -66.78347493 161.8891653 -64.25022888 151.01069641 C-63.83532102 149.22919473 -63.83532102 149.22919473 -63.41203117 147.41170311 C-59.48305076 130.53689584 -55.58629669 113.65489378 -51.71062279 96.76776886 C-50.11552175 89.82211788 -48.51534604 82.8776339 -46.91515064 75.93315506 C-45.41352249 69.41315631 -43.92090544 62.89118082 -42.43515778 56.36754608 C-41.52488525 52.38028798 -40.60622923 48.39499646 -39.68523788 44.41020203 C-39.2636489 42.57809208 -38.84559818 40.74516363 -38.43143082 38.91136169 C-37.86620454 36.41062312 -37.28839069 33.91310993 -36.70750427 31.41596985 C-36.54916831 30.70095684 -36.39083235 29.98594383 -36.22769833 29.24926376 C-33.80140096 18.99308121 -28.46494264 10.26358561 -19.57054138 4.38569641 C-13.38431603 0.57263509 -7.07392687 -0.03463947 0 0 Z " fill="#67B82E" transform="translate(790.5705413818359,437.7393035888672)"/>
<path d="M0 0 C0.66 0.33 1.32 0.66 2 1 C-4.6449948 6.4396527 -11.4342889 11.55842348 -18.5 16.4375 C-19.48556885 17.11997803 -20.4711377 17.80245605 -21.48657227 18.50561523 C-56.8202544 42.84240626 -93.5001811 65.17269528 -131 86 C-131.88929199 86.49419434 -132.77858398 86.98838867 -133.69482422 87.49755859 C-152.85605638 98.11472008 -172.28429022 108.2643872 -191.921875 117.97265625 C-195.00689045 119.49895143 -198.07537555 121.05549132 -201.140625 122.62109375 C-254.25030173 149.64317267 -309.94888988 171.9094577 -366 192 C-367.25719849 192.45182648 -367.25719849 192.45182648 -368.53979492 192.91278076 C-469.85869244 229.30942495 -574.7299916 255.75002184 -752 278 C-751.37031831 270.53377429 -749.95363785 263.33770984 -748.26342773 256.04077148 C-747.96052499 254.71190255 -747.66900695 253.38039171 -747.38842773 252.04663086 C-746.97835287 250.09978442 -746.53070601 248.16097083 -746.08203125 246.22265625 C-745.82655518 245.07547119 -745.5710791 243.92828613 -745.30786133 242.74633789 C-744 240 -744 240 -741.45288086 238.65332031 C-737.17877984 237.84461676 -733.01246431 237.52301525 -728.671875 237.32421875 C-726.7644647 237.22076369 -724.85707634 237.11690336 -722.94970703 237.01269531 C-721.9421637 236.96036743 -720.93462036 236.90803955 -719.89654541 236.85412598 C-618.27574207 231.47277488 -517.74854056 212.80807015 -357 167 C-356.07036438 166.70029297 -355.14072876 166.40058594 -354.18292236 166.09179688 C-278.78754563 141.76577166 -205.17652371 111.99203717 -134.453125 76.23828125 C-130.8506252 74.41910422 -127.23138504 72.63546701 -123.609375 70.85546875 C-110.34456618 64.3153277 -97.31152857 57.51382988 -84.48828125 50.1328125 C-80.03229548 47.57056163 -75.52921791 45.11306384 -70.99731445 42.68823242 C-56.66205376 35.00895437 -42.83417979 26.53581182 -29 18 C-27.95666504 17.35724121 -26.91333008 16.71448242 -25.83837891 16.05224609 C-21.35143824 13.28662325 -16.86782409 10.51574269 -12.390625 7.734375 C-11.65779297 7.28126953 -10.92496094 6.82816406 -10.16992188 6.36132812 C-8.67594429 5.42406226 -7.19336349 4.46846317 -5.72070312 3.49804688 C-5.00333984 3.02947266 -4.28597656 2.56089844 -3.546875 2.078125 C-2.91104492 1.6543457 -2.27521484 1.23056641 -1.62011719 0.79394531 C-0.81815918 0.40094238 -0.81815918 0.40094238 0 0 Z " fill="#0093DD" transform="translate(1328,770)"/>
<path d="M0 0 C0.66 0.33 1.32 0.66 2 1 C2 1.66 2 2.32 2 3 C1.07775635 3.45850342 0.1555127 3.91700684 -0.79467773 4.3894043 C-4.25666346 6.11126214 -7.71726896 7.83587875 -11.17749023 9.5612793 C-12.66768219 10.30388009 -14.15823424 11.04575878 -15.64916992 11.78686523 C-17.80745966 12.8598601 -19.9645847 13.93514989 -22.12109375 15.01171875 C-22.81625092 15.35814423 -23.51140808 15.7045697 -24.22763062 16.06149292 C-28.72182177 18.31575739 -33.11361273 20.69349497 -37.41821289 23.29614258 C-38.20119751 23.644552 -38.20119751 23.644552 -39 24 C-39.66 23.67 -40.32 23.34 -41 23 C-34.01263698 18.97771113 -27.0110372 14.98087217 -20 11 C-19.03465332 10.45085937 -18.06930664 9.90171875 -17.07470703 9.3359375 C-14.32572834 7.77719458 -11.5703478 6.23048491 -8.8125 4.6875 C-7.53101074 3.95889771 -7.53101074 3.95889771 -6.22363281 3.21557617 C-5.4344043 2.77705322 -4.64517578 2.33853027 -3.83203125 1.88671875 C-2.79139526 1.30216919 -2.79139526 1.30216919 -1.72973633 0.70581055 C-1.15892334 0.47289307 -0.58811035 0.23997559 0 0 Z " fill="#A39B35" transform="translate(367,247)"/>
<path d="M0 0 C-3.1254959 2.64465038 -6.08788267 3.84414715 -10 5 C-10 4.34 -10 3.68 -10 3 C-3.375 -1.125 -3.375 -1.125 0 0 Z " fill="#D58A2A" transform="translate(355,256)"/>
</svg>
